<svg width="22" height="16" viewBox="0 0 22 16" fill="none" xmlns="http://www.w3.org/2000/svg">
<path d="M18.7 2.2C18.7 0.99 17.71 0 16.5 0H14.3C13.695 0 13.2 0.495 13.2 1.1C13.2 1.705 13.695 2.2 14.3 2.2H16.5V5.115L12.672 9.9H8.8V5.5C8.8 4.895 8.305 4.4 7.7 4.4H4.4C1.969 4.4 0 6.369 0 8.8V11C0 11.605 0.495 12.1 1.1 12.1H2.2C2.2 13.926 3.674 15.4 5.5 15.4C7.326 15.4 8.8 13.926 8.8 12.1H12.672C13.343 12.1 13.97 11.792 14.388 11.275L18.216 6.49C18.535 6.094 18.7 5.61 18.7 5.115V2.2ZM5.5 13.2C4.895 13.2 4.4 12.705 4.4 12.1H6.6C6.6 12.705 6.105 13.2 5.5 13.2Z" fill="white"/>
<path d="M4.40005 1.09998H7.70005C8.30505 1.09998 8.80005 1.59498 8.80005 2.19998C8.80005 2.80498 8.30505 3.29998 7.70005 3.29998H4.40005C3.79505 3.29998 3.30005 2.80498 3.30005 2.19998C3.30005 1.59498 3.79505 1.09998 4.40005 1.09998ZM18.7 8.79998C16.874 8.79998 15.4 10.274 15.4 12.1C15.4 13.926 16.874 15.4 18.7 15.4C20.526 15.4 22 13.926 22 12.1C22 10.274 20.526 8.79998 18.7 8.79998ZM18.7 13.2C18.095 13.2 17.6 12.705 17.6 12.1C17.6 11.495 18.095 11 18.7 11C19.305 11 19.8 11.495 19.8 12.1C19.8 12.705 19.305 13.2 18.7 13.2Z" fill="white"/>
</svg>
