<svg width="27" height="27" viewBox="0 0 27 27" fill="none" xmlns="http://www.w3.org/2000/svg">
<path d="M3.3749 9.29643V9.28124C3.37488 7.78115 3.81915 6.31466 4.65166 5.06679C5.48417 3.81891 6.66763 2.84557 8.05271 2.26954C9.4378 1.69352 10.9625 1.54064 12.4343 1.83017C13.9062 2.11971 15.2594 2.8387 16.3231 3.89643C17.16 3.48335 18.0948 3.30967 19.0243 3.39458C19.9537 3.47949 20.8416 3.81968 21.5898 4.37758C22.3381 4.93547 22.9175 5.68934 23.2641 6.5559C23.6108 7.42246 23.7111 8.36798 23.554 9.28799C23.7849 9.30942 24.0089 9.37821 24.2121 9.49008C24.4152 9.60194 24.5931 9.75447 24.7347 9.93816C24.8762 10.1218 24.9784 10.3327 25.0349 10.5577C25.0913 10.7826 25.1007 11.0167 25.0626 11.2455C24.2999 15.8338 22.4133 18.738 19.4061 19.9597V21.0937C19.4061 21.7651 19.1395 22.4089 18.6648 22.8836C18.1901 23.3583 17.5462 23.625 16.8749 23.625H10.1249C9.45357 23.625 8.80973 23.3583 8.33503 22.8836C7.86033 22.4089 7.59365 21.7651 7.59365 21.0937V19.9597C4.58652 18.738 2.6999 15.8338 1.93715 11.2455C1.90034 11.0228 1.90857 10.795 1.96135 10.5756C2.01414 10.3561 2.11041 10.1495 2.24447 9.96795C2.37852 9.78638 2.54764 9.63354 2.74181 9.51849C2.93598 9.40343 3.15125 9.3285 3.3749 9.29811V9.29643ZM5.0624 9.28124H6.7499C6.7499 8.16236 7.19437 7.0893 7.98554 6.29813C8.77671 5.50696 9.84977 5.06249 10.9686 5.06249C12.0875 5.06249 13.1606 5.50696 13.9518 6.29813C14.7429 7.0893 15.1874 8.16236 15.1874 9.28124H16.8749C16.8749 7.7148 16.2526 6.21253 15.145 5.10489C14.0374 3.99725 12.5351 3.37499 10.9686 3.37499C9.40221 3.37499 7.89994 3.99725 6.7923 5.10489C5.68466 6.21253 5.0624 7.7148 5.0624 9.28124ZM8.4374 9.28124H13.4999C13.4999 8.60991 13.2332 7.96608 12.7585 7.49137C12.2838 7.01667 11.64 6.74999 10.9686 6.74999C10.2973 6.74999 9.65348 7.01667 9.17878 7.49137C8.70408 7.96608 8.4374 8.60991 8.4374 9.28124ZM20.0238 9.28124H21.8311C21.9585 8.78254 21.9704 8.26133 21.8658 7.75734C21.7613 7.25335 21.5431 6.77988 21.2278 6.373C20.9125 5.96612 20.5086 5.63657 20.0467 5.40946C19.5848 5.18236 19.0771 5.06368 18.5624 5.06249C18.1574 5.06249 17.7726 5.13336 17.4149 5.2633C17.7136 5.74255 17.96 6.25893 18.149 6.80061C18.4704 6.7209 18.8081 6.73731 19.1203 6.84782C19.4324 6.95833 19.7053 7.15807 19.905 7.42225C20.1046 7.68644 20.2223 8.00344 20.2434 8.33391C20.2646 8.66438 20.1882 8.99379 20.0238 9.28124ZM17.7186 20.25H9.28115V21.0937C9.28115 21.3175 9.37004 21.5321 9.52828 21.6904C9.68651 21.8486 9.90112 21.9375 10.1249 21.9375H16.8749C17.0987 21.9375 17.3133 21.8486 17.4715 21.6904C17.6298 21.5321 17.7186 21.3175 17.7186 21.0937V20.25ZM8.68715 18.5625H18.3126C20.989 17.7019 22.6833 15.2685 23.3988 10.9687H3.60102C4.31652 15.2685 6.01077 17.7019 8.68715 18.5625Z" fill="white"/>
</svg>
