<svg width="27" height="27" viewBox="0 0 27 27" fill="none" xmlns="http://www.w3.org/2000/svg">
<path d="M11.4986 2.81306C11.9408 2.2275 12.6259 1.6875 13.5 1.6875C14.3741 1.6875 15.0592 2.2275 15.5014 2.81306C15.9553 3.41213 16.2607 4.185 16.362 4.95113C16.4633 5.7105 16.3789 6.57113 15.9114 7.27144C15.4136 8.01562 14.5783 8.4375 13.5 8.4375C12.42 8.4375 11.5864 8.01562 11.0886 7.27144C10.6228 6.56944 10.5367 5.70881 10.638 4.95113C10.7393 4.185 11.0447 3.41213 11.4986 2.81306ZM3.42562 12.9094C3.56439 12.1287 3.97359 11.4218 4.58147 10.9126C5.18934 10.4035 5.95707 10.1247 6.75 10.125H20.25C21.0872 10.1251 21.8945 10.4363 22.5151 10.9983C23.1357 11.5602 23.5252 12.3328 23.6081 13.1659C22.8289 13.9334 22.0258 14.6762 21.2001 15.3934C20.4761 16.0161 19.7184 16.6219 19.0451 17.0691C18.7065 17.2941 18.4123 17.4634 18.1626 17.577C18.024 17.6496 17.8738 17.6976 17.7188 17.7188C17.2834 17.7188 16.9897 17.4386 16.3333 16.7248L16.3282 16.7198C15.7612 16.1055 14.9175 15.1875 13.5 15.1875C12.0825 15.1875 11.2387 16.1055 10.6718 16.7198L10.6667 16.7248C10.0086 17.4386 9.71663 17.7188 9.28125 17.7188C9.24507 17.7147 9.20942 17.7068 9.17494 17.6951C9.07485 17.6659 8.97768 17.6275 8.88469 17.5804C8.58155 17.4325 8.28992 17.2622 8.01225 17.0708C7.344 16.6219 6.57788 16.0127 5.8455 15.3883C5.00573 14.6709 4.1875 13.9286 3.39188 13.1625C3.40087 13.077 3.41212 12.9926 3.42562 12.9094ZM3.375 15.4575C3.78506 15.8338 4.25756 16.254 4.752 16.6759C5.50463 17.3171 6.32475 17.9736 7.074 18.4748C7.44694 18.7245 7.81988 18.9473 8.1675 19.1109C8.49656 19.2645 8.88975 19.4079 9.28125 19.4079C10.5098 19.4079 11.2927 18.5473 11.8041 17.9837L11.9087 17.8706C12.5078 17.2176 12.8959 16.875 13.5 16.875C14.1041 16.875 14.4922 17.2176 15.0913 17.8689L15.1959 17.982C15.7073 18.5456 16.4902 19.4062 17.7188 19.4062C18.117 19.4062 18.5169 19.2696 18.8612 19.1126C19.2493 18.9287 19.6227 18.7155 19.9783 18.4748C20.7377 17.9719 21.5561 17.3121 22.302 16.6691C22.7779 16.2608 23.2301 15.8507 23.625 15.4845V21.9375H24.4688C24.6925 21.9375 24.9071 22.0264 25.0654 22.1846C25.2236 22.3429 25.3125 22.5575 25.3125 22.7812C25.3125 23.005 25.2236 23.2196 25.0654 23.3779C24.9071 23.5361 24.6925 23.625 24.4688 23.625H2.53125C2.30747 23.625 2.09286 23.5361 1.93463 23.3779C1.77639 23.2196 1.6875 23.005 1.6875 22.7812C1.6875 22.5575 1.77639 22.3429 1.93463 22.1846C2.09286 22.0264 2.30747 21.9375 2.53125 21.9375H3.375V15.4575Z" fill="white"/>
</svg>
