<svg width="45" height="51" viewBox="0 0 45 51" fill="none" xmlns="http://www.w3.org/2000/svg">
<g filter="url(#filter0_d_6_192)">
<path d="M18.9084 2.96438C19.0945 3.05663 19.2579 3.18897 19.3868 3.35188C19.5156 3.51479 19.6068 3.70422 19.6537 3.90657C19.7044 4.12875 21.0938 10.0744 21.0938 14.0625C21.0938 16.7344 19.8506 19.1166 17.9156 20.6606C17.2125 21.2231 16.875 21.8363 16.875 22.3481V23.715C16.875 23.7806 16.8788 23.8425 16.8863 23.9006C16.9819 24.5981 17.3278 27.1884 17.6512 29.8744C17.9691 32.5097 18.2812 35.3841 18.2812 36.5625C18.2812 38.0543 17.6886 39.4851 16.6337 40.54C15.5788 41.5949 14.1481 42.1875 12.6562 42.1875C11.1644 42.1875 9.73367 41.5949 8.67877 40.54C7.62388 39.4851 7.03125 38.0543 7.03125 36.5625C7.03125 35.3813 7.34344 32.5125 7.66125 29.8744C7.98469 27.1884 8.33063 24.5981 8.42625 23.9006L8.4375 23.715V22.3481C8.4375 21.8363 8.1 21.2231 7.39688 20.6606C6.40542 19.8703 5.60483 18.8667 5.05461 17.7244C4.50439 16.5821 4.21869 15.3304 4.21875 14.0625C4.21875 10.0884 5.59688 4.17375 5.65875 3.90938C5.73186 3.59674 5.90875 3.3181 6.16056 3.1189C6.41237 2.9197 6.72424 2.8117 7.04531 2.8125C7.83281 2.8125 8.47125 3.45094 8.47125 4.23844V12.6703C8.46016 12.8602 8.48812 13.0504 8.5534 13.2291C8.61868 13.4078 8.71989 13.5713 8.85079 13.7093C8.98169 13.8474 9.13949 13.9572 9.31447 14.0318C9.48944 14.1065 9.67787 14.1446 9.86812 14.1436C10.0584 14.1427 10.2464 14.1027 10.4206 14.0262C10.5948 13.9498 10.7515 13.8384 10.881 13.699C11.0105 13.5597 11.11 13.3952 11.1735 13.2159C11.237 13.0365 11.263 12.8461 11.25 12.6563V4.21875C11.25 3.84579 11.3982 3.48811 11.6619 3.22439C11.9256 2.96066 12.2833 2.8125 12.6562 2.8125C13.0292 2.8125 13.3869 2.96066 13.6506 3.22439C13.9143 3.48811 14.0625 3.84579 14.0625 4.21875V12.7294C14.0703 13.0986 14.2245 13.4496 14.4911 13.7052C14.7578 13.9607 15.115 14.0999 15.4842 14.092C15.8534 14.0842 16.2044 13.93 16.46 13.6634C16.7155 13.3968 16.8547 13.0395 16.8469 12.6703V4.23282C16.8469 3.44813 17.4825 2.8125 18.27 2.8125C18.3319 2.8125 18.6075 2.8125 18.9084 2.96438ZM25.3125 15.4688C25.3125 12.1121 26.6459 8.89294 29.0194 6.51943C31.3929 4.14593 34.6121 2.8125 37.9688 2.8125C38.3417 2.8125 38.6994 2.96066 38.9631 3.22439C39.2268 3.48811 39.375 3.84579 39.375 4.21875V21.0178L39.4284 21.5156C39.6521 23.6147 39.8668 25.7147 40.0725 27.8156C40.4184 31.3481 40.7812 35.3081 40.7812 36.5625C40.7812 38.0543 40.1886 39.4851 39.1337 40.54C38.0788 41.5949 36.6481 42.1875 35.1562 42.1875C33.6644 42.1875 32.2337 41.5949 31.1788 40.54C30.1239 39.4851 29.5312 38.0543 29.5312 36.5625C29.5312 35.3081 29.8941 31.3481 30.24 27.8156C30.4172 26.0241 30.5944 24.3084 30.7266 23.0372L30.7828 22.5H28.125C27.3791 22.5 26.6637 22.2037 26.1363 21.6762C25.6088 21.1488 25.3125 20.4334 25.3125 19.6875V15.4688Z" fill="white"/>
</g>
<defs>
<filter id="filter0_d_6_192" x="-4" y="0" width="53" height="53" filterUnits="userSpaceOnUse" color-interpolation-filters="sRGB">
<feFlood flood-opacity="0" result="BackgroundImageFix"/>
<feColorMatrix in="SourceAlpha" type="matrix" values="0 0 0 0 0 0 0 0 0 0 0 0 0 0 0 0 0 0 127 0" result="hardAlpha"/>
<feOffset dy="4"/>
<feGaussianBlur stdDeviation="2"/>
<feComposite in2="hardAlpha" operator="out"/>
<feColorMatrix type="matrix" values="0 0 0 0 0 0 0 0 0 0 0 0 0 0 0 0 0 0 0.25 0"/>
<feBlend mode="normal" in2="BackgroundImageFix" result="effect1_dropShadow_6_192"/>
<feBlend mode="normal" in="SourceGraphic" in2="effect1_dropShadow_6_192" result="shape"/>
</filter>
</defs>
</svg>
