<svg width="53" height="53" viewBox="0 0 53 53" fill="none" xmlns="http://www.w3.org/2000/svg">
<g clip-path="url(#clip0_6_203)" filter="url(#filter0_d_6_203)">
<path d="M20.3247 5.98364C17.3106 5.98364 14.8414 8.44559 14.8414 11.4511C14.8414 12.6157 15.2127 13.6984 15.8422 14.5881L19.6551 19.7604C20.1892 20.4579 20.5452 20.3256 20.9893 19.7235L25.1959 13.986C25.2789 13.831 25.3487 13.6693 25.4047 13.5027C25.6644 12.8682 25.8084 12.1752 25.8084 11.4511C25.8084 8.44559 23.3392 5.98364 20.3247 5.98364ZM20.3247 8.54549C21.9478 8.54549 23.2393 9.83249 23.2393 11.4511C23.2393 13.0698 21.9478 14.3581 20.3247 14.3581C18.7015 14.3581 17.4105 13.0698 17.4105 11.4511C17.4105 9.83249 18.702 8.54549 20.3247 8.54549Z" fill="white"/>
<path d="M20.7309 0.0800781C16.4424 0.0800781 12.1534 1.71043 8.89181 4.97159C2.36907 11.4948 2.36907 22.127 8.89181 28.6497C14.9979 34.7553 24.6864 35.1144 31.2505 29.7869L32.8597 31.3965C32.7687 31.7238 32.7475 32.0386 32.7977 32.3194C32.8479 32.6001 32.9682 32.84 33.1504 33.0224L44.8283 44.7004C45.1622 45.0341 45.6821 45.1545 46.2737 45.035C46.8653 44.9155 47.4801 44.5659 47.9828 44.0632C48.4856 43.5604 48.8352 42.9456 48.9547 42.354C49.0742 41.7625 48.9538 41.2425 48.62 40.9086L36.9425 29.2307C36.76 29.0483 36.52 28.9278 36.239 28.8776C35.958 28.8275 35.6429 28.8487 35.3153 28.94L33.7061 27.3303C39.0337 20.7662 38.6755 11.0776 32.5694 4.97204C29.3083 1.70998 25.0194 0.0800781 20.7309 0.0800781ZM20.7309 3.77773C24.0595 3.77773 27.3886 5.05304 29.9392 7.60319C31.1518 8.8105 32.1139 10.2454 32.7705 11.8256C33.427 13.4057 33.765 15.1 33.765 16.8111C33.765 18.5222 33.427 20.2165 32.7705 21.7966C32.1139 23.3768 31.1518 24.8117 29.9392 26.019C28.7319 27.2316 27.297 28.1938 25.7168 28.8503C24.1367 29.5068 22.4424 29.8448 20.7313 29.8448C19.0202 29.8448 17.3259 29.5068 15.7458 28.8503C14.1656 28.1938 12.7307 27.2316 11.5234 26.019C10.3108 24.8117 9.34869 23.3768 8.69216 21.7966C8.03563 20.2165 7.69766 18.5222 7.69766 16.8111C7.69766 15.1 8.03563 13.4057 8.69216 11.8256C9.34869 10.2454 10.3108 8.8105 11.5234 7.60319C14.0736 5.05304 17.4027 3.77773 20.7309 3.77773Z" fill="white"/>
<path d="M17.3772 23.4013L12.7476 24.921C14.7066 26.8142 17.2747 27.9496 19.9935 28.1245L17.3772 23.4013ZM32.1214 18.5638L20.6572 22.3258L23.6745 27.7708C25.2967 27.3438 26.806 26.5676 28.0971 25.4965C30.2271 23.7435 31.6555 21.2828 32.1214 18.5638ZM9.25333 15.471C9.027 17.7512 9.48774 20.0471 10.5763 22.0635L14.8603 20.6581L9.25333 15.471ZM31.0009 11.3157L28.6146 16.1451L32.1768 14.9769C31.9936 13.699 31.596 12.4612 31.0009 11.3157Z" fill="white"/>
</g>
<defs>
<filter id="filter0_d_6_203" x="0" y="0" width="53" height="53" filterUnits="userSpaceOnUse" color-interpolation-filters="sRGB">
<feFlood flood-opacity="0" result="BackgroundImageFix"/>
<feColorMatrix in="SourceAlpha" type="matrix" values="0 0 0 0 0 0 0 0 0 0 0 0 0 0 0 0 0 0 127 0" result="hardAlpha"/>
<feOffset dy="4"/>
<feGaussianBlur stdDeviation="2"/>
<feComposite in2="hardAlpha" operator="out"/>
<feColorMatrix type="matrix" values="0 0 0 0 0 0 0 0 0 0 0 0 0 0 0 0 0 0 0.25 0"/>
<feBlend mode="normal" in2="BackgroundImageFix" result="effect1_dropShadow_6_203"/>
<feBlend mode="normal" in="SourceGraphic" in2="effect1_dropShadow_6_203" result="shape"/>
</filter>
<clipPath id="clip0_6_203">
<rect width="45" height="45" fill="white" transform="translate(4)"/>
</clipPath>
</defs>
</svg>
