<svg width="24" height="23" viewBox="0 0 24 23" fill="none" xmlns="http://www.w3.org/2000/svg">
<path d="M19.9444 9.55557C20.3734 8.31257 20.4651 6.82268 20.5556 5.01624V3.44446H17.7982C14.3393 3.44446 12.1564 4.42712 10.9049 5.98179M2.22222 9.55557H21.7778C22.1019 9.55557 22.4128 9.68434 22.642 9.91355C22.8712 10.1428 23 10.4536 23 10.7778V11.3889C23 13.2222 19.9237 18.2003 18.1111 19.3333V20.5556C18.1111 20.8797 17.9823 21.1906 17.7531 21.4198C17.5239 21.649 17.213 21.7778 16.8889 21.7778H7.11111C6.78696 21.7778 6.47608 21.649 6.24687 21.4198C6.01766 21.1906 5.88889 20.8797 5.88889 20.5556V19.3333C3.827 18.0451 1 13.2222 1 11.3889V10.7778C1 10.4536 1.12877 10.1428 1.35798 9.91355C1.58719 9.68434 1.89807 9.55557 2.22222 9.55557Z" stroke="white" stroke-width="2" stroke-linecap="round" stroke-linejoin="round"/>
<path d="M3.756 9.56533C3.58318 8.7575 3.47892 7.9365 3.44434 7.11111V5.88889H5.58934C6.78711 5.88889 7.79056 6.04044 8.61923 6.31667M7.111 5.88889L8.33322 1L13.2221 4.05556" stroke="white" stroke-width="2" stroke-linecap="round" stroke-linejoin="round"/>
<path d="M13.2222 9.55558V8.94447C13.2222 8.13409 12.9003 7.3569 12.3272 6.78387C11.7542 6.21084 10.977 5.88892 10.1666 5.88892C9.35626 5.88892 8.57906 6.21084 8.00604 6.78387C7.43301 7.3569 7.11108 8.13409 7.11108 8.94447V9.55558" stroke="white" stroke-width="2" stroke-linecap="round" stroke-linejoin="round"/>
</svg>
