<svg width="45" height="45" viewBox="0 0 45 45" fill="none" xmlns="http://www.w3.org/2000/svg">
<path d="M31.875 33.75C29.7937 33.75 28.125 35.4187 28.125 37.5C28.125 38.4946 28.5201 39.4484 29.2234 40.1516C29.9266 40.8549 30.8804 41.25 31.875 41.25C32.8696 41.25 33.8234 40.8549 34.5266 40.1516C35.2299 39.4484 35.625 38.4946 35.625 37.5C35.625 36.5054 35.2299 35.5516 34.5266 34.8484C33.8234 34.1451 32.8696 33.75 31.875 33.75ZM1.875 3.75V7.5H5.625L12.375 21.7313L9.825 26.325C9.54375 26.85 9.375 27.4688 9.375 28.125C9.375 29.1196 9.77009 30.0734 10.4733 30.7766C11.1766 31.4799 12.1304 31.875 13.125 31.875H35.625V28.125H13.9125C13.7882 28.125 13.669 28.0756 13.581 27.9877C13.4931 27.8998 13.4438 27.7806 13.4438 27.6562C13.4438 27.5625 13.4625 27.4875 13.5 27.4313L15.1875 24.375H29.1563C30.5625 24.375 31.8 23.5875 32.4375 22.4438L39.15 10.3125C39.2812 10.0125 39.375 9.69375 39.375 9.375C39.375 8.87772 39.1775 8.40081 38.8258 8.04918C38.4742 7.69754 37.9973 7.5 37.5 7.5H9.76875L8.00625 3.75M13.125 33.75C11.0437 33.75 9.375 35.4187 9.375 37.5C9.375 38.4946 9.77009 39.4484 10.4733 40.1516C11.1766 40.8549 12.1304 41.25 13.125 41.25C14.1196 41.25 15.0734 40.8549 15.7766 40.1516C16.4799 39.4484 16.875 38.4946 16.875 37.5C16.875 36.5054 16.4799 35.5516 15.7766 34.8484C15.0734 34.1451 14.1196 33.75 13.125 33.75Z" fill="white"/>
</svg>
