<svg width="22" height="28" viewBox="0 0 22 28" fill="none" xmlns="http://www.w3.org/2000/svg">
<path d="M9.43258 25.1636H8.60758C5.63025 25.1636 4.14066 25.1636 3.21575 23.9891C2.29083 22.8146 2.29175 20.924 2.29175 17.1428V11.4136C2.29175 7.63236 2.29175 5.74173 3.21758 4.5684C4.14066 3.39163 5.63025 3.39163 8.60758 3.39163H11.3145C14.2927 3.39163 16.0326 3.45579 16.9575 4.62913C17.8833 5.80475 17.8742 7.63121 17.8742 11.4125V12.7726M14.6163 2.29163V4.58329M10.033 2.29163V4.58329M5.44966 2.29163V4.58329M6.41675 17.1875H10.0834M6.41675 11.4583H13.7501" stroke="white" stroke-width="1.5" stroke-linecap="round" stroke-linejoin="round"/>
<path opacity="0.93" d="M18.5293 17.0489C17.6988 15.8859 17.2011 15.9558 16.6483 16.1632C16.2606 16.2319 14.9332 18.1684 14.3796 18.7871C13.4712 19.9077 12.5582 21.0627 12.4986 21.214C12.3262 21.5635 12.1667 22.1822 12.0888 22.8743C11.9449 23.9124 11.7377 25.08 11.9999 25.1809C12.2621 25.2817 12.9963 25.0892 13.8259 24.9368C14.3796 24.8108 14.7664 24.6733 15.0432 24.4659C15.431 24.1748 16.1497 23.1516 17.3899 21.6288C18.1663 20.6056 18.9161 19.8986 19.138 19.2076C19.3589 18.1695 19.028 17.6161 18.5293 17.0489Z" stroke="white" stroke-width="1.5" stroke-linecap="round" stroke-linejoin="round"/>
</svg>
