<svg width="19" height="19" viewBox="0 0 19 19" fill="none" xmlns="http://www.w3.org/2000/svg">
<path d="M14.2499 10.2561H10.2916V14.1103C10.2916 14.3147 10.2082 14.5108 10.0597 14.6554C9.91124 14.7999 9.70988 14.8811 9.49992 14.8811C9.28996 14.8811 9.08859 14.7999 8.94013 14.6554C8.79166 14.5108 8.70825 14.3147 8.70825 14.1103V10.2561H4.74992C4.53996 10.2561 4.33859 10.1749 4.19013 10.0304C4.04166 9.88581 3.95825 9.68975 3.95825 9.48531C3.95825 9.28087 4.04166 9.08481 4.19013 8.94025C4.33859 8.79569 4.53996 8.71448 4.74992 8.71448H8.70825V4.86031C8.70825 4.65587 8.79166 4.45981 8.94013 4.31525C9.08859 4.17069 9.28996 4.08948 9.49992 4.08948C9.70988 4.08948 9.91124 4.17069 10.0597 4.31525C10.2082 4.45981 10.2916 4.65587 10.2916 4.86031V8.71448H14.2499C14.4599 8.71448 14.6612 8.79569 14.8097 8.94025C14.9582 9.08481 15.0416 9.28087 15.0416 9.48531C15.0416 9.68975 14.9582 9.88581 14.8097 10.0304C14.6612 10.1749 14.4599 10.2561 14.2499 10.2561Z" fill="#1DFF46"/>
</svg>
