<svg width="39" height="39" viewBox="0 0 39 39" fill="none" xmlns="http://www.w3.org/2000/svg">
<path d="M25.1874 22.75H23.9036L23.4486 22.3113C24.4642 21.1315 25.2064 19.7418 25.6222 18.2416C26.0379 16.7415 26.117 15.168 25.8536 13.6338C25.0899 9.11627 21.3199 5.50877 16.7699 4.95627C15.1703 4.7539 13.5456 4.92015 12.0201 5.44229C10.4946 5.96443 9.10875 6.82863 7.96862 7.96875C6.8285 9.10887 5.96431 10.4947 5.44217 12.0202C4.92003 13.5457 4.75378 15.1704 4.95615 16.77C5.50865 21.32 9.11615 25.09 13.6336 25.8538C15.1679 26.1171 16.7414 26.0381 18.2415 25.6223C19.7417 25.2065 21.1313 24.4643 22.3111 23.4488L22.7499 23.9038V25.1875L29.6561 32.0938C30.3224 32.76 31.4111 32.76 32.0774 32.0938C32.7436 31.4275 32.7436 30.3388 32.0774 29.6725L25.1874 22.75ZM15.4374 22.75C11.3911 22.75 8.1249 19.4838 8.1249 15.4375C8.1249 11.3913 11.3911 8.12502 15.4374 8.12502C19.4836 8.12502 22.7499 11.3913 22.7499 15.4375C22.7499 19.4838 19.4836 22.75 15.4374 22.75Z" fill="#2C2C2C"/>
</svg>
